<?xml version="1.0" standalone="no"?><!DOCTYPE svg PUBLIC "-//W3C//DTD SVG 1.1//EN" "http://www.w3.org/Graphics/SVG/1.1/DTD/svg11.dtd"><svg t="1726932148894" class="icon" viewBox="0 0 1024 1024" version="1.1" xmlns="http://www.w3.org/2000/svg" p-id="4349" data-spm-anchor-id="a313x.collections_detail.0.i20.21f23a810MbZGh" xmlns:xlink="http://www.w3.org/1999/xlink" width="200" height="200"><path d="M510.304 32C776.416 32 992 246.816 992 512c0 265.184-215.584 480-481.696 480C244.224 988.64 32 773.824 32 508.64S244.224 32 510.304 32z" fill="#ffffff" p-id="4350" data-spm-anchor-id="a313x.collections_detail.0.i18.21f23a810MbZGh" class="selected"></path><path d="M510.4 64C758.816 64 960 264.512 960 512s-201.216 448-449.6 448C262.08 956.864 64 756.352 64 508.864 64 261.376 262.08 64 510.4 64z" fill="#FFFFFF" p-id="4351"></path><path d="M512 96c231.104 0 416 184.896 416 416s-184.896 416-416 416S96 743.104 96 512 280.896 96 512 96z" fill="#f4a2ca" p-id="4352" data-spm-anchor-id="a313x.collections_detail.0.i17.21f23a810MbZGh" class=""></path><path d="M364.736 363.744c0-66.464 64.32-120.352 143.68-120.352 79.36 0 143.68 53.888 143.68 120.32 0 33.024-15.904 62.944-41.6 84.672v51.168a34.112 34.112 0 0 1-34.048 34.016c-14.304 0-26.592-8.992-31.584-21.6a34.048 34.048 0 0 1-33.92 33.28 34.08 34.08 0 0 1-33.984-33.28c-4.992 12.608-17.28 21.6-31.584 21.6a34.112 34.112 0 0 1-34.016-34.016v-47.232c-28.608-22.016-46.624-53.504-46.624-88.576z m159.168-14.336a44.896 44.896 0 1 0 89.792 0 44.896 44.896 0 0 0-89.792 0z m-120.896 0a44.896 44.896 0 1 0 89.792 0 44.896 44.896 0 0 0-89.792 0z m75.616 132.32h59.552v-10.368l-29.76-52-29.76 51.52v10.88z m-210.304 194.24a40.96 40.96 0 0 1 81.12-7.904l102.912-47.392-102.944-47.424a40.96 40.96 0 1 1-42.656-48.992 40.96 40.96 0 1 1 64.64 4.32l140.48 64.704 140.48-64.704a40.96 40.96 0 1 1 64.64-4.32 40.96 40.96 0 1 1-42.688 48.992l-102.944 47.424 102.912 47.392a40.96 40.96 0 1 1 81.152 7.904c0 21.632-16.864 39.52-38.464 40.832a40.96 40.96 0 1 1-64.8-4.128l-140.288-64.608-140.288 64.64a40.96 40.96 0 1 1-64.832 4.128 40.928 40.928 0 0 1-38.432-40.864z" fill="#FFFFFF" p-id="4353" data-spm-anchor-id="a313x.collections_detail.0.i16.21f23a810MbZGh" class=""></path></svg>